<?xml version="1.0" encoding="utf-8"?>
<!-- Generator: Adobe Illustrator 16.0.0, SVG Export Plug-In . SVG Version: 6.00 Build 0)  -->
<!DOCTYPE svg PUBLIC "-//W3C//DTD SVG 1.1//EN" "http://www.w3.org/Graphics/SVG/1.1/DTD/svg11.dtd">
<svg version="1.1" id="Layer_1" xmlns="http://www.w3.org/2000/svg" xmlns:xlink="http://www.w3.org/1999/xlink" x="0px" y="0px"
	 width="1052px" height="680px" viewBox="0 0 1052 680" enable-background="new 0 0 1052 680" xml:space="preserve">
<g>
	<circle fill="#FFBE00" cx="676.827" cy="591.86" r="4.666"/>
	<path fill="#FFBE00" d="M673.515,606.542c0,1.832,1.483,3.315,3.313,3.315c1.827,0,3.314-1.483,3.314-3.315
		c0-1.829-1.487-3.312-3.314-3.312C674.998,603.229,673.515,604.713,673.515,606.542z"/>
	<circle fill="#FFBE00" cx="676.828" cy="618.521" r="1.721"/>
	<path fill="#FFBE00" d="M676.828,579.767c-2.448,0-4.433-1.984-4.433-4.432v-20.188c0-2.447,1.984-4.432,4.433-4.432
		s4.431,1.984,4.431,4.432v20.188C681.259,577.782,679.276,579.767,676.828,579.767z"/>
</g>
<g>
	<circle fill="#FFBE00" cx="437.444" cy="387.853" r="4.666"/>
	<path fill="#FFBE00" d="M434.132,402.533c0,1.833,1.483,3.316,3.313,3.316c1.828,0,3.316-1.483,3.316-3.316
		c0-1.829-1.488-3.312-3.316-3.312C435.615,399.222,434.132,400.704,434.132,402.533z"/>
	<circle fill="#FFBE00" cx="437.446" cy="414.512" r="1.721"/>
	<path fill="#FFBE00" d="M437.445,375.758c-2.448,0-4.432-1.984-4.432-4.432V351.14c0-2.448,1.984-4.433,4.432-4.433
		c2.449,0,4.432,1.984,4.432,4.433v20.187C441.876,373.773,439.894,375.758,437.445,375.758z"/>
</g>
<g>
	<circle fill="#FFBE00" cx="13.37" cy="555.238" r="4.666"/>
	<circle fill="#FFBE00" cx="13.372" cy="569.919" r="3.314"/>
	<circle fill="#FFBE00" cx="13.371" cy="581.897" r="1.721"/>
	<path fill="#FFBE00" d="M13.37,543.145c-2.447,0-4.431-1.985-4.431-4.433v-20.187c0-2.448,1.984-4.432,4.431-4.432
		c2.45,0,4.432,1.983,4.432,4.432v20.187C17.802,541.159,15.82,543.145,13.37,543.145z"/>
</g>
<g>
	<circle fill="#FFBE00" cx="94.957" cy="225.574" r="4.666"/>
	<path fill="#FFBE00" d="M91.645,240.255c0,1.832,1.483,3.315,3.313,3.315c1.828,0,3.316-1.483,3.316-3.315
		c0-1.829-1.488-3.312-3.316-3.312C93.128,236.943,91.645,238.426,91.645,240.255z"/>
	<circle fill="#FFBE00" cx="94.958" cy="252.233" r="1.721"/>
	<path fill="#FFBE00" d="M94.958,213.48c-2.448,0-4.432-1.984-4.432-4.432v-20.187c0-2.448,1.984-4.432,4.432-4.432
		c2.449,0,4.432,1.984,4.432,4.432v20.187C99.389,211.496,97.407,213.48,94.958,213.48z"/>
</g>
<g>
	<circle fill="#FFBE00" cx="264.938" cy="449.307" r="4.666"/>
	<circle fill="#FFBE00" cx="264.94" cy="463.988" r="3.314"/>
	<circle fill="#FFBE00" cx="264.939" cy="475.967" r="1.721"/>
	<path fill="#FFBE00" d="M264.938,437.213c-2.447,0-4.432-1.984-4.432-4.432v-20.187c0-2.448,1.984-4.433,4.432-4.433
		c2.45,0,4.432,1.984,4.432,4.433v20.187C269.37,435.229,267.388,437.213,264.938,437.213z"/>
</g>
<g>
	<circle fill="#FFBE00" cx="293.628" cy="191.097" r="4.666"/>
	<path fill="#FFBE00" d="M290.315,205.778c0,1.833,1.483,3.315,3.313,3.315c1.828,0,3.315-1.483,3.315-3.315
		c0-1.829-1.488-3.312-3.315-3.312C291.799,202.466,290.315,203.949,290.315,205.778z"/>
	<circle fill="#FFBE00" cx="293.63" cy="217.756" r="1.721"/>
	<path fill="#FFBE00" d="M293.629,179.002c-2.448,0-4.432-1.984-4.432-4.432v-20.186c0-2.449,1.984-4.433,4.432-4.433
		c2.449,0,4.431,1.984,4.431,4.433v20.186C298.06,177.018,296.078,179.002,293.629,179.002z"/>
</g>
<g>
	<circle fill="#FFBE00" cx="153.234" cy="90.193" r="4.666"/>
	<path fill="#FFBE00" d="M149.921,104.875c0,1.832,1.483,3.315,3.313,3.315c1.828,0,3.315-1.483,3.315-3.315
		c0-1.829-1.488-3.312-3.315-3.312C151.404,101.562,149.921,103.045,149.921,104.875z"/>
	<circle fill="#FFBE00" cx="153.235" cy="116.853" r="1.721"/>
	<path fill="#FFBE00" d="M153.234,78.099c-2.448,0-4.432-1.984-4.432-4.432V53.481c0-2.449,1.984-4.433,4.432-4.433
		c2.449,0,4.432,1.984,4.432,4.433v20.186C157.666,76.114,155.684,78.099,153.234,78.099z"/>
</g>
<g>
	<circle fill="#FFBE00" cx="844.484" cy="521.929" r="4.666"/>
	<path fill="#FFBE00" d="M841.172,536.61c0,1.832,1.483,3.315,3.313,3.315c1.827,0,3.314-1.483,3.314-3.315
		c0-1.829-1.487-3.312-3.314-3.312C842.655,533.298,841.172,534.781,841.172,536.61z"/>
	<circle fill="#FFBE00" cx="844.485" cy="548.588" r="1.721"/>
	<path fill="#FFBE00" d="M844.485,509.835c-2.448,0-4.433-1.985-4.433-4.433v-20.187c0-2.448,1.984-4.432,4.433-4.432
		s4.431,1.983,4.431,4.432v20.187C848.916,507.85,846.934,509.835,844.485,509.835z"/>
</g>
<g>
	<circle fill="#FFBE00" cx="992.947" cy="603.027" r="4.666"/>
	<path fill="#FFBE00" d="M989.636,617.709c0,1.832,1.482,3.315,3.312,3.315c1.827,0,3.315-1.483,3.315-3.315
		c0-1.829-1.488-3.312-3.315-3.312C991.118,614.396,989.636,615.88,989.636,617.709z"/>
	<circle fill="#FFBE00" cx="992.949" cy="629.688" r="1.721"/>
	<path fill="#FFBE00" d="M992.948,590.934c-2.448,0-4.432-1.985-4.432-4.433v-20.187c0-2.448,1.983-4.432,4.432-4.432
		c2.449,0,4.432,1.983,4.432,4.432v20.187C997.38,588.948,995.397,590.934,992.948,590.934z"/>
</g>
<g>
	<circle fill="#FFBE00" cx="168.475" cy="571.647" r="4.666"/>
	<circle fill="#FFBE00" cx="168.477" cy="586.329" r="3.314"/>
	<circle fill="#FFBE00" cx="168.477" cy="598.308" r="1.721"/>
	<path fill="#FFBE00" d="M168.476,559.554c-2.447,0-4.431-1.985-4.431-4.432v-20.188c0-2.447,1.984-4.432,4.431-4.432
		c2.45,0,4.432,1.984,4.432,4.432v20.188C172.907,557.568,170.925,559.554,168.476,559.554z"/>
</g>
<g>
	<circle fill="#FFBE00" cx="910.83" cy="216.608" r="4.666"/>
	<path fill="#FFBE00" d="M907.518,231.29c0,1.832,1.483,3.315,3.313,3.315c1.827,0,3.314-1.483,3.314-3.315
		c0-1.829-1.487-3.312-3.314-3.312C909.001,227.978,907.518,229.461,907.518,231.29z"/>
	<circle fill="#FFBE00" cx="910.831" cy="243.268" r="1.721"/>
	<path fill="#FFBE00" d="M910.831,204.514c-2.448,0-4.433-1.984-4.433-4.432v-20.186c0-2.449,1.984-4.433,4.433-4.433
		s4.431,1.984,4.431,4.433v20.186C915.262,202.53,913.279,204.514,910.831,204.514z"/>
</g>
<g>
	<circle fill="#FFBE00" cx="1002.279" cy="96.469" r="4.666"/>
	<path fill="#FFBE00" d="M998.967,111.15c0,1.832,1.483,3.315,3.313,3.315c1.827,0,3.314-1.483,3.314-3.315
		c0-1.829-1.487-3.312-3.314-3.312C1000.45,107.838,998.967,109.321,998.967,111.15z"/>
	<circle fill="#FFBE00" cx="1002.28" cy="123.128" r="1.722"/>
	<path fill="#FFBE00" d="M1002.28,84.375c-2.448,0-4.433-1.984-4.433-4.431V59.757c0-2.448,1.984-4.433,4.433-4.433
		s4.431,1.984,4.431,4.433v20.187C1006.711,82.39,1004.729,84.375,1002.28,84.375z"/>
</g>
<g>
	<circle fill="#FFBE00" cx="859.726" cy="365.927" r="4.666"/>
	<path fill="#FFBE00" d="M856.413,380.607c0,1.833,1.483,3.316,3.313,3.316c1.827,0,3.314-1.483,3.314-3.316
		c0-1.828-1.487-3.312-3.314-3.312C857.896,377.296,856.413,378.779,856.413,380.607z"/>
	<circle fill="#FFBE00" cx="859.727" cy="392.586" r="1.722"/>
	<path fill="#FFBE00" d="M859.727,353.833c-2.448,0-4.432-1.985-4.432-4.433v-20.186c0-2.448,1.983-4.433,4.432-4.433
		c2.449,0,4.432,1.984,4.432,4.433V349.4C864.158,351.848,862.176,353.833,859.727,353.833z"/>
</g>
<g>
	<circle fill="#FFBE00" cx="134.04" cy="359.162" r="4.666"/>
	<circle fill="#FFBE00" cx="134.042" cy="373.844" r="3.314"/>
	<circle fill="#FFBE00" cx="134.041" cy="385.822" r="1.721"/>
	<path fill="#FFBE00" d="M134.041,347.068c-2.448,0-4.432-1.985-4.432-4.433V322.45c0-2.448,1.984-4.432,4.432-4.432
		c2.449,0,4.432,1.984,4.432,4.432v20.186C138.472,345.083,136.49,347.068,134.041,347.068z"/>
</g>
<g>
	<circle fill="#FFBE00" cx="1039.039" cy="436.755" r="4.666"/>
	<path fill="#FFBE00" d="M1035.727,451.437c0,1.832,1.482,3.315,3.312,3.315c1.827,0,3.314-1.483,3.314-3.315
		c0-1.829-1.487-3.312-3.314-3.312C1037.209,448.124,1035.727,449.607,1035.727,451.437z"/>
	<circle fill="#FFBE00" cx="1039.04" cy="463.415" r="1.721"/>
	<path fill="#FFBE00" d="M1039.039,424.661c-2.448,0-4.432-1.984-4.432-4.432v-20.187c0-2.448,1.983-4.433,4.432-4.433
		c2.449,0,4.432,1.984,4.432,4.433v20.187C1043.471,422.677,1041.488,424.661,1039.039,424.661z"/>
</g>
<g>
	<circle fill="#FFBE00" cx="742.807" cy="166.401" r="4.666"/>
	<path fill="#FFBE00" d="M739.494,181.083c0,1.832,1.483,3.315,3.313,3.315c1.827,0,3.314-1.483,3.314-3.315
		c0-1.829-1.487-3.312-3.314-3.312C740.978,177.77,739.494,179.253,739.494,181.083z"/>
	<circle fill="#FFBE00" cx="742.807" cy="193.06" r="1.721"/>
	<path fill="#FFBE00" d="M742.808,154.307c-2.448,0-4.433-1.984-4.433-4.432v-20.186c0-2.449,1.984-4.433,4.433-4.433
		s4.431,1.984,4.431,4.433v20.186C747.238,152.322,745.256,154.307,742.808,154.307z"/>
</g>
<g>
	<circle fill="#FFBE00" cx="640.964" cy="113.504" r="4.666"/>
	<path fill="#FFBE00" d="M637.652,128.185c0,1.832,1.482,3.315,3.312,3.315c1.827,0,3.315-1.483,3.315-3.315
		c0-1.829-1.488-3.312-3.315-3.312C639.135,124.873,637.652,126.356,637.652,128.185z"/>
	<circle fill="#FFBE00" cx="640.965" cy="140.163" r="1.721"/>
	<path fill="#FFBE00" d="M640.965,101.409c-2.447,0-4.432-1.984-4.432-4.431V76.792c0-2.448,1.984-4.432,4.432-4.432
		c2.449,0,4.432,1.984,4.432,4.432v20.187C645.396,99.425,643.414,101.409,640.965,101.409z"/>
</g>
<g>
	<circle fill="#FFBE00" cx="368.409" cy="596.751" r="4.666"/>
	<circle fill="#FFBE00" cx="368.411" cy="611.433" r="3.314"/>
	<circle fill="#FFBE00" cx="368.41" cy="623.411" r="1.721"/>
	<path fill="#FFBE00" d="M368.409,584.657c-2.447,0-4.431-1.984-4.431-4.432v-20.187c0-2.448,1.984-4.433,4.431-4.433
		c2.45,0,4.432,1.984,4.432,4.433v20.187C372.841,582.673,370.859,584.657,368.409,584.657z"/>
</g>
<g>
	<circle fill="#FFBE00" cx="592.068" cy="339.747" r="4.666"/>
	<path fill="#FFBE00" d="M588.756,354.428c0,1.832,1.483,3.316,3.313,3.316c1.827,0,3.314-1.484,3.314-3.316
		c0-1.828-1.487-3.312-3.314-3.312C590.239,351.116,588.756,352.6,588.756,354.428z"/>
	<circle fill="#FFBE00" cx="592.069" cy="366.406" r="1.721"/>
	<path fill="#FFBE00" d="M592.069,327.653c-2.448,0-4.433-1.985-4.433-4.432v-20.187c0-2.448,1.984-4.432,4.433-4.432
		s4.431,1.984,4.431,4.432v20.187C596.5,325.668,594.518,327.653,592.069,327.653z"/>
</g>
<g>
	<circle fill="#FFBE00" cx="441.561" cy="166.401" r="4.666"/>
	<path fill="#FFBE00" d="M438.249,181.083c0,1.832,1.483,3.315,3.313,3.315c1.828,0,3.316-1.483,3.316-3.315
		c0-1.829-1.488-3.312-3.316-3.312C439.732,177.77,438.249,179.253,438.249,181.083z"/>
	<circle fill="#FFBE00" cx="441.562" cy="193.06" r="1.721"/>
	<path fill="#FFBE00" d="M441.562,154.307c-2.447,0-4.432-1.984-4.432-4.432v-20.186c0-2.449,1.984-4.433,4.432-4.433
		c2.449,0,4.432,1.984,4.432,4.433v20.186C445.993,152.322,444.011,154.307,441.562,154.307z"/>
</g>
</svg>
