<?xml version="1.0" encoding="utf-8"?>
<!-- Generator: Adobe Illustrator 16.0.0, SVG Export Plug-In . SVG Version: 6.00 Build 0)  -->
<!DOCTYPE svg PUBLIC "-//W3C//DTD SVG 1.1//EN" "http://www.w3.org/Graphics/SVG/1.1/DTD/svg11.dtd">
<svg version="1.1" id="Layer_1" xmlns="http://www.w3.org/2000/svg" xmlns:xlink="http://www.w3.org/1999/xlink" x="0px" y="0px"
	 width="211px" height="18px" viewBox="0 0 211 18" enable-background="new 0 0 211 18" xml:space="preserve">
<g>
	<path fill="#9EF0D9" d="M111.837,0.716c0-0.247,0.207-0.469,0.465-0.469h6.303c4.984,0,9.064,3.876,9.064,8.616
		c0,4.79-4.08,8.665-9.064,8.665h-6.303c-0.258,0-0.465-0.223-0.465-0.47V0.716z M118.578,13.873c2.919,0,4.804-2.197,4.804-5.011
		c0-2.79-1.885-4.986-4.804-4.986h-2.712v9.997H118.578z"/>
	<path fill="#9EF0D9" d="M128.21,16.885l8.085-16.613C136.372,0.124,136.552,0,136.733,0h0.258c0.182,0,0.361,0.124,0.439,0.271
		l8.084,16.613c0.154,0.322-0.052,0.643-0.439,0.643h-2.867c-0.464,0-0.67-0.148-0.902-0.617l-0.931-1.951h-7.025l-0.929,1.976
		c-0.13,0.296-0.414,0.593-0.931,0.593h-2.841C128.263,17.527,128.056,17.207,128.21,16.885z M138.825,11.604l-1.963-4.074h-0.025
		l-1.938,4.074H138.825z"/>
	<path fill="#9EF0D9" d="M149.181,3.876h-3.692c-0.284,0-0.491-0.222-0.491-0.469V0.716c0-0.247,0.207-0.469,0.491-0.469h11.468
		c0.283,0,0.49,0.223,0.49,0.469v2.691c0,0.247-0.207,0.469-0.49,0.469h-3.693v13.182c0,0.247-0.232,0.47-0.491,0.47h-3.1
		c-0.258,0-0.491-0.223-0.491-0.47V3.876z"/>
	<path fill="#9EF0D9" d="M198.461,15.873c-0.206-0.197-0.284-0.42-0.104-0.74l1.188-2c0.207-0.32,0.619-0.32,0.877-0.148
		c0.724,0.47,2.041,1.357,3.668,1.357c1.033,0,1.781-0.615,1.781-1.48c0-1.037-0.955-1.703-2.659-2.493
		c-2.505-1.161-5.011-2.494-5.011-5.456c0-2.444,1.988-4.913,5.967-4.913c2.686,0,4.751,1.309,5.527,1.852
		c0.309,0.172,0.258,0.617,0.154,0.79l-1.318,1.9c-0.18,0.272-0.619,0.469-1.135,0.173c-0.594-0.395-2.118-1.333-3.487-1.333
		c-1.085,0-1.575,0.643-1.575,1.358c0,0.815,1.007,1.457,2.814,2.295c2.273,1.062,5.218,2.271,5.218,5.629
		c0,2.543-2.299,5.109-6.096,5.109C200.914,17.773,199.056,16.441,198.461,15.873z"/>
	<path fill="#9EF0D9" d="M9.69,0.113c2.583,0,4.494,0.765,6.25,2.296c0.232,0.197,0.232,0.494,0.026,0.691l-2.015,2
		c-0.182,0.172-0.465,0.172-0.646,0c-1.059-0.889-2.221-1.259-3.485-1.259c-2.919,0-5.062,2.32-5.062,5.085
		c0,2.74,2.17,5.011,5.088,5.011c1.42,0,2.531-0.42,3.46-1.186c0.182-0.147,0.518-0.147,0.672,0.025l2.016,2.049
		c0.18,0.173,0.154,0.494-0.026,0.666c-1.757,1.629-3.978,2.395-6.276,2.395c-5.166,0-9.323-3.925-9.323-8.862
		C0.367,4.088,4.524,0.113,9.69,0.113z"/>
	<path fill="#9EF0D9" d="M69.601,0.128H27.608c-0.053-0.001-0.104-0.004-0.156-0.004c-5.166,0-9.324,3.95-9.324,8.888
		c0,4.936,4.158,8.862,9.324,8.862h41.999c0.051,0.001,0.099,0.004,0.149,0.004c5.166,0,9.271-3.926,9.271-8.863
		S74.767,0.128,69.601,0.128z M27.452,13.924c-2.842,0-5.191-2.223-5.191-4.913c0-2.716,2.35-4.938,5.191-4.938l42.148,0.004
		c2.815,0,5.14,2.222,5.14,4.937c0,2.691-2.324,4.913-5.14,4.913L27.452,13.924z"/>
	<path fill="#9EF0D9" d="M186.655,0.251H168.18c-0.053-0.001-0.104-0.004-0.157-0.004c-5.164,0-9.322,3.951-9.322,8.888
		c0,4.938,4.158,8.862,9.322,8.862h18.484c0.049,0.001,0.098,0.004,0.148,0.004c5.165,0,9.271-3.926,9.271-8.862
		C195.927,4.2,191.82,0.251,186.655,0.251z M168.022,14.047c-2.84,0-5.19-2.223-5.19-4.913c0-2.716,2.351-4.937,5.19-4.937
		L186.655,4.2c2.814,0,5.14,2.222,5.14,4.938c0,2.69-2.325,4.913-5.14,4.913L168.022,14.047z"/>
	<path fill="#9EF0D9" d="M82.196,0.557c0-0.247,0.232-0.444,0.49-0.444h0.388c0.259,0,0.438,0.173,0.646,0.371l9.918,9.108h0.025
		V0.829c0-0.247,0.207-0.469,0.491-0.469h3.099c0.26,0,0.492,0.222,0.492,0.469v16.614c0,0.296-0.232,0.443-0.492,0.443h-0.258
		c-0.258,0-0.439-0.074-0.645-0.271L86.303,7.964h-0.026v9.208c0,0.246-0.207,0.469-0.49,0.469h-3.072
		c-0.259,0-0.492-0.223-0.492-0.469L82.196,0.557z"/>
</g>
</svg>
