<?xml version="1.0" encoding="utf-8"?>
<!-- Generator: Adobe Illustrator 16.0.0, SVG Export Plug-In . SVG Version: 6.00 Build 0)  -->
<!DOCTYPE svg PUBLIC "-//W3C//DTD SVG 1.1//EN" "http://www.w3.org/Graphics/SVG/1.1/DTD/svg11.dtd">
<svg version="1.1" id="Layer_1" xmlns="http://www.w3.org/2000/svg" xmlns:xlink="http://www.w3.org/1999/xlink" x="0px" y="0px"
	 width="640px" height="74px" viewBox="0 0 640 74" enable-background="new 0 0 640 74" xml:space="preserve">
<g>
	<g>
		<path fill="#00E15A" d="M144.241,42.188c1.979,0.369,3.886-0.876,4.363-2.805l0,0l0,0c0.019-0.072,0.034-0.146,0.049-0.218
			c0.094-0.51,0.225-1.122,0.305-1.769c1.653-7.831,5.998-13.053,13.314-13.053c7.798,0,12.222,5.929,13.606,14.631
			c0.011,0.096,0.026,0.191,0.043,0.287c0.404,2.039,2.364,3.364,4.402,2.961c1.959-0.387,3.298-2.225,3.035-4.182l0,0l0,0
			c-0.002-0.025-0.007-0.051-0.012-0.078c-0.007-0.049-0.014-0.099-0.024-0.147c0,0,0,0,0,0.001c0-0.001,0-0.001,0-0.001
			c-0.005-0.026-0.011-0.05-0.018-0.072c0.007,0.022,0.012,0.046,0.018,0.071c-2.031-11.871-9.077-20.279-21.05-20.279
			c-11.875,0-18.903,8.273-20.999,19.99c0,0,0,0,0,0.001c-0.01,0.04-0.019,0.08-0.029,0.119c0,0.003-0.001,0.007-0.002,0.011
			c-0.007,0.041-0.017,0.08-0.025,0.119c-0.011,0.062-0.02,0.123-0.03,0.186c-0.008,0.059-0.013,0.117-0.018,0.176
			c0,0.003-0.001,0.004-0.003,0.01c0-0.002,0-0.002,0-0.002C141.001,40.061,142.312,41.826,144.241,42.188z"/>
		<polygon fill="#00E15A" points="183.323,37.815 183.323,37.814 183.323,37.815 		"/>
	</g>
	<g>
		<path fill="#00E15A" d="M180.305,48.584c-1.978-0.369-3.884,0.873-4.363,2.804l0,0l0,0c-0.017,0.072-0.034,0.146-0.047,0.22
			c-0.097,0.508-0.223,1.119-0.306,1.767c-1.651,7.832-5.999,13.053-13.314,13.053c-7.797,0-12.223-5.93-13.605-14.632
			c-0.014-0.094-0.026-0.19-0.044-0.286c-0.406-2.04-2.365-3.366-4.402-2.962c-1.96,0.389-3.297,2.226-3.036,4.184
			c0-0.002,0-0.002,0-0.002v0.002c0.004,0.025,0.007,0.053,0.012,0.079c0.008,0.048,0.015,0.097,0.026,0.146v-0.001v0.002
			c0.006,0.025,0.011,0.047,0.016,0.072c-0.005-0.025-0.01-0.047-0.016-0.072c2.03,11.872,9.076,20.278,21.049,20.278
			c11.876,0,18.903-8.272,20.998-19.99l0,0c0.01-0.04,0.02-0.081,0.029-0.119c0.001-0.005,0.001-0.007,0.002-0.011
			c0.009-0.041,0.017-0.08,0.025-0.119c0.01-0.062,0.021-0.125,0.029-0.187c0.007-0.058,0.015-0.117,0.021-0.176
			c0-0.003,0-0.005,0-0.009l0,0C183.544,50.71,182.234,48.944,180.305,48.584z"/>
		<polygon fill="#00E15A" points="141.225,52.956 141.225,52.957 141.225,52.957 		"/>
	</g>
	<path fill="#00E15A" d="M117.931,68.28c0,2.399-1.395,4.182-3.716,4.182c-2.479,0-3.72-1.782-3.72-4.182V34.894
		c0-2.053,1.665-3.719,3.72-3.719c2.05,0,3.716,1.666,3.716,3.719V68.28z"/>
	<path fill="#00E15A" d="M474.095,55.522c0,2.401-1.395,4.182-3.719,4.182c-2.478,0-3.718-1.78-3.718-4.182V35.107
		c0-2.054,1.666-3.718,3.718-3.718c2.053,0,3.719,1.664,3.719,3.718V55.522z"/>
	<path fill="#00E15A" d="M189.044,60.455c0-2.169,1.473-3.795,3.717-3.795c1.395,0,2.479,0.619,3.409,2.09
		c3.176,5.19,6.584,7.67,14.099,7.67c7.437,0,11.542-3.021,11.542-8.986c0-14.176-30.753-5.654-30.753-24.4
		c0-10.614,8.986-15.569,18.591-15.569c7.978,0,13.324,2.788,16.654,8.366c0.697,1.163,1.006,2.247,1.006,3.176
		c0,2.478-1.781,3.872-3.796,3.872c-1.393,0-2.556-0.696-3.329-2.246c-2.169-4.571-5.346-6.353-10.536-6.353
		c-6.429,0-11.153,2.48-11.153,8.754c0,10.844,30.751,4.416,30.751,24.246c0,10.689-9.373,15.956-18.978,15.956
		c-8.52,0-15.725-2.942-20.295-9.992C189.354,62.236,189.044,61.307,189.044,60.455z"/>
	<g>
		<path fill="#00E15A" d="M553.994,42.385c1.979,0.367,3.886-0.875,4.364-2.805l0,0l0,0c0.018-0.072,0.034-0.145,0.049-0.221
			c0.095-0.508,0.223-1.119,0.306-1.767c1.65-7.831,5.996-13.052,13.312-13.052c7.799,0,12.224,5.93,13.606,14.631
			c0.012,0.096,0.026,0.191,0.044,0.287c0.404,2.039,2.364,3.365,4.401,2.962c1.96-0.389,3.299-2.226,3.035-4.183l0,0l0,0
			c-0.003-0.026-0.008-0.053-0.012-0.078c-0.008-0.051-0.016-0.098-0.024-0.147c0,0,0,0,0,0.001c0-0.001,0-0.002-0.002-0.004
			c-0.003-0.023-0.011-0.047-0.016-0.07c0.005,0.023,0.013,0.047,0.016,0.07c-2.029-11.87-9.076-20.278-21.049-20.278
			c-11.877,0-18.903,8.273-20.998,19.993l0,0c-0.011,0.039-0.019,0.078-0.028,0.117c-0.001,0.004-0.001,0.008-0.001,0.01
			c-0.012,0.041-0.019,0.081-0.027,0.121c-0.01,0.061-0.02,0.123-0.027,0.185c-0.009,0.06-0.016,0.118-0.02,0.177
			c0,0.002-0.002,0.005-0.002,0.009l0,0C550.756,40.257,552.065,42.022,553.994,42.385z"/>
		<polygon fill="#00E15A" points="593.076,38.013 593.074,38.01 593.074,38.01 		"/>
	</g>
	<g>
		<path fill="#00E15A" d="M590.06,48.781c-1.979-0.37-3.886,0.875-4.364,2.804l0,0l0,0c-0.018,0.072-0.035,0.145-0.049,0.218
			c-0.096,0.51-0.224,1.121-0.306,1.768c-1.651,7.832-5.997,13.054-13.314,13.054c-7.799,0-12.222-5.93-13.605-14.632
			c-0.011-0.095-0.025-0.19-0.045-0.286c-0.403-2.041-2.364-3.364-4.399-2.96c-1.961,0.386-3.299,2.223-3.036,4.181l0,0l0,0
			c0.004,0.026,0.008,0.052,0.011,0.079c0.008,0.048,0.017,0.097,0.026,0.146l0,0v0.002c0.005,0.023,0.011,0.048,0.016,0.07
			c-0.005-0.022-0.011-0.047-0.016-0.07c2.029,11.869,9.075,20.278,21.049,20.278c11.877,0,18.904-8.271,20.998-19.991l0,0
			c0.011-0.04,0.021-0.079,0.029-0.119c0.001-0.003,0.001-0.007,0.003-0.012c0.009-0.039,0.017-0.078,0.024-0.118
			c0.012-0.062,0.022-0.124,0.028-0.185c0.01-0.059,0.017-0.117,0.02-0.176c0.001-0.003,0.003-0.006,0.003-0.009l0,0
			C593.299,50.908,591.988,49.143,590.06,48.781z"/>
		<polygon fill="#00E15A" points="550.978,53.152 550.978,53.154 550.978,53.154 		"/>
	</g>
	<path fill="#00E15A" d="M598.796,60.651c0-2.168,1.473-3.796,3.719-3.796c1.394,0,2.479,0.619,3.409,2.093
		c3.175,5.189,6.584,7.668,14.098,7.668c7.437,0,11.542-3.021,11.542-8.985c0-14.176-30.753-5.655-30.753-24.399
		c0-10.612,8.984-15.57,18.591-15.57c7.979,0,13.323,2.789,16.655,8.365c0.696,1.162,1.007,2.247,1.007,3.176
		c0,2.479-1.782,3.874-3.795,3.874c-1.395,0-2.558-0.697-3.332-2.247c-2.169-4.572-5.346-6.352-10.535-6.352
		c-6.429,0-11.154,2.478-11.154,8.754c0,10.845,30.753,4.415,30.753,24.243c0,10.691-9.373,15.958-18.979,15.958
		c-8.521,0-15.725-2.942-20.295-9.992C599.106,62.434,598.796,61.504,598.796,60.651z"/>
	<path fill="#00E15A" d="M307.78,22.6c0-2.323,1.473-4.182,3.795-4.182c2.247,0,3.642,1.859,3.642,4.182v30.056
		c0,10.07,4.648,13.942,12.317,13.942c7.59,0,12.161-3.872,12.161-13.942V22.6c0-2.323,1.395-4.182,3.718-4.182
		c2.325,0,3.719,1.859,3.719,4.182v30.056c0,12.162-6.818,20.76-19.598,20.76c-12.859,0-19.753-8.598-19.753-20.528V22.6z
		 M323.813,12.143c-0.542,0.232-1.083,0.387-1.548,0.387c-1.937,0-3.253-1.704-3.253-3.485c0-1.162,0.619-2.325,2.091-3.097
		l9.451-4.804c0.773-0.387,1.471-0.542,2.09-0.542c1.938,0,3.331,1.549,3.331,3.254c0,1.007-0.387,2.245-1.704,2.943L323.813,12.143
		z"/>
	<path fill="#00E15A" d="M373.39,72.671c-1.885,0-3.409-1.527-3.409-3.41s1.524-3.411,3.409-3.411l7.052-0.025
		c5.577,0,7.9-3.253,7.9-8.365c0-4.957-2.246-8.831-8.443-8.831l-6.512-0.001c-1.882,0-3.406-1.525-3.406-3.407
		s1.524-3.407,3.406-3.407h4.111c5.577,0,8.132-3.332,8.132-8.058c0-4.725-2.555-8.521-8.132-8.521h-2.172l-1.921,0.035
		c-1.892,0-3.425-1.533-3.425-3.426c0-1.891,1.533-3.425,3.425-3.425h1.405h3.15c8.135,0,15.105,5.345,15.105,15.336
		c0,5.965-3.252,9.451-6.274,10.923c5.036,1.703,8.985,6.352,8.985,12.549c0,8.754-6.119,15.414-14.795,15.414L373.39,72.671z"/>
	<path fill="#00E15A" d="M521.427,17.643c6.661,0,11.695,1.394,16.963,6.739c1.007,1.008,1.395,2.092,1.395,3.021
		c0,2.091-1.937,3.795-3.873,3.795c-0.931,0-1.781-0.386-2.558-1.238c-3.484-3.951-7.279-5.501-11.927-5.501
		c-10.768,0-14.719,10.69-14.719,21.069c0,10.381,3.951,21.069,14.719,21.069c4.647,0,8.442-1.549,11.927-5.5
		c0.776-0.852,1.627-1.238,2.558-1.238c1.937,0,3.873,1.703,3.873,3.795c0,0.93-0.388,2.015-1.395,3.021
		c-5.268,5.346-10.302,6.74-16.963,6.74c-14.099,0-22.31-10.845-22.31-27.887S507.328,17.643,521.427,17.643z"/>
	<path fill="#00E15A" d="M269.44,68.458c0,2.402-1.395,4.183-3.718,4.183c-2.479,0-3.719-1.78-3.719-4.183V22.137
		c0-2.055,1.666-3.719,3.719-3.719c2.052,0,3.718,1.664,3.718,3.719V68.458z"/>
	<path fill="#00E15A" d="M132.28,18.203c2.214,0,3.854,1.285,3.854,3.426c0,2.284-1.641,3.425-3.854,3.425H95.718
		c-1.894,0-3.428-1.534-3.428-3.425c0-1.893,1.534-3.426,3.428-3.426H132.28z"/>
	<path fill="#00E15A" d="M482.634,65.79c2.213,0,3.855,1.284,3.855,3.425c0,2.285-1.643,3.426-3.855,3.426h-24.942
		c-1.895,0-3.428-1.533-3.428-3.426s1.533-3.425,3.428-3.425H482.634z"/>
	<path fill="#00E15A" d="M482.634,18.418c2.213,0,3.855,1.284,3.855,3.425c0,2.284-1.643,3.426-3.855,3.426h-24.942
		c-1.895,0-3.428-1.533-3.428-3.426c0-1.891,1.533-3.425,3.428-3.425H482.634z"/>
	<path fill="#00E15A" d="M73.176,41.07c2.213,0,3.854,1.285,3.854,3.426c0,2.284-1.641,3.428-3.854,3.428H62.944
		c-1.891,0-3.425-1.537-3.425-3.428c0-1.893,1.534-3.426,3.425-3.426H73.176z"/>
	<path fill="#00E15A" d="M80.728,65H55V25h23.066c2.214,0,3.855-1.216,3.855-3.499c0-2.142-1.642-3.501-3.855-3.501H51.678
		c-1.892,0-3.425,1.547-3.425,3.438c0,0.051,0.046,47.104,0.046,47.183c0,1.892,1.487,3.379,3.38,3.379h29.048
		c2.211,0,3.854-1.217,3.854-3.5C84.582,66.358,82.939,65,80.728,65z"/>
	<path fill="#00E15A" d="M440.727,66H416V22.137c0-2.055-1.447-3.719-3.498-3.719c-2.055,0-3.502,1.664-3.502,3.719
		c0,0,0,46.848,0,47.146c0,1.893,1.559,3.717,3.451,3.717h28.275c2.213,0,3.854-1.217,3.854-3.5
		C444.58,67.358,442.939,66,440.727,66z"/>
	<path fill="#00E15A" d="M365.8,68.458c0,2.402-1.395,4.183-3.718,4.183c-2.479,0-3.719-1.78-3.719-4.183V22.137
		c0-2.055,1.666-3.719,3.719-3.719c2.055,0,3.718,1.664,3.718,3.719V68.458z"/>
	<path fill="#00E15A" d="M281.238,51.929c-1.908,0-3.8-0.001-3.8-0.001c-1.882,0-3.408-1.525-3.408-3.408
		c0-1.882,1.526-3.408,3.408-3.408l4.961,0.002c6.509,0,10.095-4.463,10.095-10.195c0-5.888-3.586-9.684-10.095-9.684h-4.097h-0.864
		c-1.882,0-3.408-1.525-3.408-3.408c0-1.881,1.526-3.408,3.408-3.408h4.497c11.388,0,17.997,6.816,17.997,16.5
		C299.931,42.275,298.608,51.929,281.238,51.929z"/>
	<path fill="#00E15A" d="M4.755,72.523C2.681,72.523,1,70.842,1,68.767V21.994c0-2.076,1.681-3.756,3.755-3.756
		c2.075,0,3.757,1.68,3.757,3.756v46.773C8.512,70.842,6.831,72.523,4.755,72.523z"/>
	<path fill="#00E15A" d="M19.345,51.003c-1.967,0-3.321-0.221-3.464-0.245c-2.045-0.351-3.419-2.293-3.069-4.338
		c0.351-2.044,2.293-3.418,4.335-3.069c1.697,0.276,6.783,0.447,9.733-2.064c1.843-1.566,2.739-4.024,2.739-7.513
		c0-2.31-0.667-4.043-2.041-5.299c-3.005-2.75-8.902-2.902-10.731-2.74c-2.065,0.184-3.891-1.341-4.075-3.408
		c-0.184-2.067,1.343-3.892,3.408-4.076c1.06-0.094,10.519-0.765,16.471,4.681c2.931,2.682,4.48,6.431,4.48,10.842
		c0,5.771-1.827,10.238-5.429,13.275C27.769,50.366,22.678,51.003,19.345,51.003z"/>
	<path fill="#00E15A" d="M34.764,72.523c-1.245,0-2.463-0.62-3.178-1.75l-7.325-11.591c-1.108-1.754-0.586-4.075,1.168-5.183
		c1.753-1.109,4.074-0.585,5.182,1.169l7.326,11.591c1.107,1.753,0.585,4.075-1.168,5.182C36.147,72.335,35.45,72.523,34.764,72.523
		z"/>
</g>
</svg>
