<?xml version="1.0" encoding="utf-8"?>
<!-- Generator: Adobe Illustrator 16.0.0, SVG Export Plug-In . SVG Version: 6.00 Build 0)  -->
<!DOCTYPE svg PUBLIC "-//W3C//DTD SVG 1.1//EN" "http://www.w3.org/Graphics/SVG/1.1/DTD/svg11.dtd">
<svg version="1.1" id="Layer_1" xmlns="http://www.w3.org/2000/svg" xmlns:xlink="http://www.w3.org/1999/xlink" x="0px" y="0px"
	 width="978px" height="453px" viewBox="-167.5 -188.5 978 453" enable-background="new -167.5 -188.5 978 453"
	 xml:space="preserve">
<g>
	<path fill="#9EF0D9" d="M634.291,20.5h33.888c3.132,0,5.321-3.126,5.321-5.968V-91.5h0.373L784.655,20.041
		c2.281,2.275,4.272,3.459,7.121,3.459h2.85c2.845,0,4.874-2.427,4.874-5.839v-191.414c0-2.845-2.029-4.747-4.874-4.747h-34.177
		c-3.129,0-5.949,1.902-5.949,4.747V-72.5h0.25L645.395-177.342c-2.278-2.275-4.269-4.158-7.122-4.158h-4.266
		c-2.852,0-5.412,2.024-5.412,4.87l0.282,191.569C628.877,17.78,631.441,20.5,634.291,20.5z"/>
	<path fill="#9EF0D9" d="M770.091,205.375c0-38.678-32.463-52.741-57.524-64.971c-19.935-9.667-31.041-17.129-31.041-26.514
		c0-8.246,5.407-15.675,17.366-15.675c15.1,0,31.9,10.795,38.45,15.343c5.697,3.414,10.538,1.132,12.529-1.996l14.524-21.906
		c1.141-1.989,1.708-7.113-1.706-9.103c-8.548-6.259-31.328-21.334-60.945-21.334c-43.855,0-65.786,28.444-65.786,56.599
		c0,34.129,27.625,49.489,55.248,62.857c18.797,9.102,29.335,16.779,29.335,28.727c0,9.955-8.262,17.063-19.653,17.063
		c-17.939,0-32.463-10.237-40.439-15.641c-2.845-1.991-7.405-1.991-9.683,1.706l-13.099,23.036
		c-1.992,3.697-1.142,6.509,1.139,8.784c3.393,3.387,10.54,9.148,21.777,14.148h76.896
		C758.28,245.5,770.091,225.369,770.091,205.375z"/>
	<path fill="#9EF0D9" d="M447.405,256.5h80.262c36.788-15,61.833-51.983,61.833-94.606V-77.601c0-0.577,0.312-1.146,0.312-1.725
		c0-56.882-45.847-102.675-102.799-102.675C430.053-182,384.5-136.209,384.5-79.325v239.586c0,0.543,0.365,1.333,0.365,1.882
		C384.865,204.766,410.697,241.5,447.405,256.5z M430.879-79.325c0-31.282,25.638-57.167,56.679-57.167
		c31.324,0,56.952,25.885,56.952,57.167l-0.039,241.219c0,31.001-25.634,56.598-56.956,56.598
		c-31.043,0-56.675-25.597-56.675-56.598L430.879-79.325z"/>
	<path fill="#9EF0D9" d="M337.535,62.5H211.088c-3.129,0-5.588,2.123-5.588,4.967v31.002c0,2.845,2.459,6.031,5.588,6.031H251.5
		v151.253c0,0.083,0.32,0.747,0.325,0.747h44.972c0.004,0-0.297-0.664-0.297-0.747V104.5h41.035c3.134,0,4.965-3.187,4.965-6.031
		V67.467C342.5,64.623,340.669,62.5,337.535,62.5z"/>
	<path fill="#9EF0D9" d="M272.069,22.78c25.346,0,49.833-8.815,69.201-27.587c1.992-1.992,2.279-5.691,0.287-7.682l-22.215-23.606
		c-1.709-1.991-5.41-1.991-7.406-0.285c-10.251,8.817-22.497,13.654-38.161,13.654c-32.181,0-56.105-26.168-56.105-57.74
		c0-31.852,23.639-58.587,55.821-58.587c13.951,0,26.767,4.264,38.445,14.505c1.996,1.99,5.128,1.99,7.119,0l22.215-23.038
		c2.279-2.275,2.279-5.69-0.285-7.964c-19.366-17.634-40.44-26.45-68.916-26.45c-56.962,0-102.81,45.791-102.81,102.673
		C169.26-22.442,215.107,22.78,272.069,22.78z"/>
	<path fill="#9EF0D9" d="M-53.645,256.5c39.553-13,68.248-50.64,68.248-94.706c0-54.605-44.992-99.294-99.955-99.294h-69.488
		c-2.849,0-5.66,2.123-5.66,4.967v188.286c0,0.083,0.543,0.747,0.547,0.747H-53.645z M-116.5,104.5h30.862
		c32.181,0,52.97,25.217,52.97,57.357c0,32.422-20.789,57.643-52.97,57.643H-116.5V104.5z"/>
	<path fill="#9EF0D9" d="M66.145,256.5c0.331-1,0.617-0.896,0.852-1.457l10.25-22.543h77.465l10.248,22.258
		c0.34,0.716,0.675,0.742,1.012,1.742h45.967c-0.032-1-0.207-1.73-0.558-2.488L122.245,62.615c-0.853-1.707-2.849-3.115-4.843-3.115
		h-2.851c-1.991,0-3.982,1.283-4.837,2.99L20.574,254.083c-0.35,0.757-0.523,1.417-0.557,2.417H66.145z M115.695,146.5h0.283
		l21.643,47H94.332L115.695,146.5z"/>
</g>
</svg>
