<?xml version="1.0" encoding="utf-8"?>
<!-- Generator: Adobe Illustrator 16.0.0, SVG Export Plug-In . SVG Version: 6.00 Build 0)  -->
<!DOCTYPE svg PUBLIC "-//W3C//DTD SVG 1.1//EN" "http://www.w3.org/Graphics/SVG/1.1/DTD/svg11.dtd">
<svg version="1.1" id="Layer_1" xmlns="http://www.w3.org/2000/svg" xmlns:xlink="http://www.w3.org/1999/xlink" x="0px" y="0px"
	 width="152px" height="270px" viewBox="0 0 152 270" enable-background="new 0 0 152 270" xml:space="preserve">
<g>
	<path fill="#FFFFFF" d="M15.605,237.803l-1.127-3.333H7.564l-1.127,3.333H3.251l6.103-17.38h3.458l6.104,17.38H15.605z
		 M11.021,224.295l-2.476,7.331h4.953L11.021,224.295z"/>
	<path fill="#FFFFFF" d="M31.734,237.803l-0.368-1.911c-0.516,1.005-2.181,2.205-4.363,2.23c-2.011,0.024-3.799-0.49-5.172-1.937
		c-1.814-1.888-2.256-4.215-2.256-7.06c0-2.846,0.368-5.101,2.256-6.987c1.323-1.323,3.309-2.034,5.172-2.034
		c2.132,0,3.971,0.784,5.147,1.986c0.859,0.881,1.497,1.984,1.595,3.505h-3.236c-0.049-0.687-0.392-1.151-0.76-1.594
		c-0.613-0.711-1.569-1.055-2.77-1.055c-1.004,0-2.158,0.443-2.844,1.179c-1.2,1.249-1.348,3.406-1.348,5
		c0,1.592,0.172,3.822,1.374,5.074c0.687,0.734,1.814,1.103,2.818,1.103c1.128,0,2.011-0.393,2.598-1.005
		c0.933-0.979,1.129-2.06,1.129-3.384h-4.143v-2.622h7.207v9.511H31.734z"/>
	<path fill="#FFFFFF" d="M37.347,237.803v-17.38h12.38v2.868h-9.219v4.045h8.116v2.842h-8.116v4.757h9.219v2.868H37.347z"/>
	<path fill="#FFFFFF" d="M63.38,237.803l-7.526-11.938v11.938h-3.114v-17.38h3.357l7.43,11.767v-11.767h3.111v17.38H63.38z"/>
	<path fill="#FFFFFF" d="M77.13,223.364v14.438h-3.164v-14.438h-5.147v-2.941h13.459v2.941H77.13z"/>
	<path fill="#FFFFFF" d="M84.459,237.803v-17.38h12.379v2.868h-9.219v4.045h8.115v2.842h-8.115v4.757h9.219v2.868H84.459z"/>
	<path fill="#FFFFFF" d="M110.932,236.259c-1.324,1.323-3.358,1.863-5.491,1.863c-1.838,0-3.775-0.49-5.197-1.789
		c-1.03-0.932-1.814-2.404-1.814-4.047h3.236c0,0.86,0.393,1.618,0.908,2.133c0.735,0.737,1.909,0.933,2.916,0.933
		c1.201,0,2.353-0.244,3.016-0.933c0.393-0.414,0.687-0.832,0.687-1.668c0-1.273-0.981-1.861-2.059-2.059
		c-1.177-0.218-2.698-0.268-3.852-0.465c-2.399-0.393-4.411-1.959-4.411-4.853c0-1.373,0.614-2.525,1.522-3.432
		c1.15-1.128,3.062-1.839,5.097-1.839c1.863,0,3.677,0.588,4.854,1.691c1.029,0.98,1.74,2.256,1.765,3.7h-3.236
		c-0.025-0.612-0.343-1.274-0.76-1.716c-0.563-0.588-1.715-0.931-2.647-0.931c-0.982,0-2.108,0.223-2.817,0.955
		c-0.368,0.394-0.59,0.833-0.59,1.472c0,1.128,0.736,1.718,1.766,1.888c1.102,0.172,2.648,0.292,3.774,0.441
		c2.599,0.367,4.78,2.06,4.78,5.024C112.378,234.249,111.789,235.401,110.932,236.259z"/>
	<path fill="#FFFFFF" d="M131.62,236.086c-1.031,1.007-2.549,1.717-4.39,1.717h-5.761v-17.38h5.761c1.841,0,3.358,0.712,4.39,1.716
		c1.911,1.838,2.107,4.535,2.107,6.962C133.728,231.528,133.531,234.249,131.62,236.086z M130.689,222.972
		c-0.885-0.833-2.159-1.299-3.459-1.299h-4.486v14.88h4.486c1.3,0,2.574-0.467,3.459-1.299c1.616-1.568,1.739-4.069,1.739-6.153
		C132.429,227.018,132.306,224.518,130.689,222.972z"/>
	<path fill="#FFFFFF" d="M137.795,237.803v-17.38h11.13v1.227h-9.832v6.373h8.655v1.226h-8.655v7.33h9.832v1.225H137.795z"/>
	<path fill="#FFFFFF" d="M5.286,266.332v-17.38h3.21v17.38H5.286z"/>
	<path fill="#FFFFFF" d="M23.205,266.332l-7.526-11.938v11.938h-3.114v-17.38h3.358l7.427,11.766v-11.766h3.114v17.38H23.205z"/>
	<path fill="#FFFFFF" d="M41.17,266.332l-7.525-11.938v11.938h-3.111v-17.38h3.356l7.429,11.766v-11.766h3.113v17.38H41.17z"/>
	<path fill="#FFFFFF" d="M59.701,264.69c-1.323,1.322-3.137,1.96-5,1.96c-1.864,0-3.678-0.638-5.002-1.96
		c-1.887-1.887-2.206-4.191-2.206-7.036c0-2.843,0.319-5.172,2.206-7.06c1.324-1.324,3.138-1.962,5.002-1.962
		c1.863,0,3.677,0.638,5,1.962c1.889,1.888,2.208,4.217,2.208,7.06C61.909,260.499,61.59,262.804,59.701,264.69z M57.445,252.654
		c-0.686-0.738-1.74-1.154-2.744-1.154c-1.006,0-2.06,0.416-2.747,1.154c-1.199,1.25-1.247,3.406-1.247,5
		c0,1.595,0.048,3.725,1.247,4.975c0.688,0.736,1.741,1.154,2.747,1.154c1.004,0,2.059-0.418,2.744-1.154
		c1.203-1.25,1.251-3.38,1.251-4.975C58.697,256.061,58.648,253.904,57.445,252.654z"/>
	<path fill="#FFFFFF" d="M71.812,266.332H68.33l-5.761-17.38h3.357l4.216,13.262l4.192-13.262h3.188L71.812,266.332z"/>
	<path fill="#FFFFFF" d="M89.02,266.332l-1.129-3.334h-6.913l-1.128,3.334h-3.187l6.104-17.38h3.456l6.104,17.38H89.02z
		 M84.435,252.826l-2.478,7.327h4.954L84.435,252.826z"/>
	<path fill="#FFFFFF" d="M104.999,264.591c-1.3,1.325-3.112,2.06-4.975,2.06c-1.864,0-3.604-0.612-4.928-1.937
		c-1.889-1.887-2.157-4.215-2.157-7.06c0-2.843,0.269-5.172,2.157-7.06c1.324-1.324,3.063-1.962,4.928-1.962
		c1.862,0,3.675,0.687,4.975,2.01c1.006,1.032,1.52,2.403,1.667,3.773h-3.235c-0.074-0.757-0.342-1.297-0.783-1.837
		c-0.564-0.709-1.546-1.079-2.623-1.079c-1.007,0-1.986,0.416-2.673,1.154c-1.201,1.25-1.201,3.406-1.201,5
		c0,1.595,0,3.752,1.201,5.001c0.687,0.734,1.666,1.152,2.673,1.152c1.077,0,2.059-0.393,2.623-1.104
		c0.441-0.538,0.709-1.151,0.783-1.913h3.235C106.519,262.166,106.005,263.562,104.999,264.591z"/>
	<path fill="#FFFFFF" d="M109.386,266.332v-17.38h3.21v17.38H109.386z"/>
	<path fill="#FFFFFF" d="M127.869,264.69c-1.324,1.322-3.138,1.96-5.002,1.96c-1.863,0-3.677-0.638-5-1.96
		c-1.887-1.887-2.206-4.191-2.206-7.036c0-2.843,0.319-5.172,2.206-7.06c1.323-1.324,3.137-1.962,5-1.962
		c1.864,0,3.678,0.638,5.002,1.962c1.888,1.888,2.206,4.217,2.206,7.06C130.075,260.499,129.757,262.804,127.869,264.69z
		 M125.614,252.654c-0.687-0.738-1.741-1.154-2.747-1.154c-1.005,0-2.059,0.416-2.744,1.154c-1.201,1.25-1.251,3.406-1.251,5
		c0,1.595,0.05,3.725,1.251,4.975c0.686,0.736,1.739,1.154,2.744,1.154c1.006,0,2.061-0.418,2.747-1.154
		c1.2-1.25,1.25-3.38,1.25-4.975C126.864,256.061,126.814,253.904,125.614,252.654z M120.64,247.604l-0.982-1.594l4.51-3.385
		l1.372,2.233L120.64,247.604z"/>
	<path fill="#FFFFFF" d="M143.777,266.332l-7.526-11.938v11.938h-3.113v-17.38h3.359l7.428,11.766v-11.766h3.113v17.38H143.777z"/>
	<path fill="#FFFFFF" d="M60.256,110.762c0,6.74,5.47,12.205,12.205,12.205c6.74,0,12.203-5.465,12.203-12.205
		c0-6.738-5.463-12.201-12.203-12.201C65.726,98.561,60.256,104.023,60.256,110.762z"/>
	<path fill="#FFFFFF" d="M63.795,149.164c0,4.791,3.88,8.671,8.666,8.671c4.781,0,8.673-3.88,8.673-8.671
		c0-4.785-3.892-8.664-8.673-8.664C67.675,140.5,63.795,144.379,63.795,149.164z"/>
	<circle fill="#FFFFFF" cx="72.463" cy="180.493" r="4.502"/>
	<path fill="#FFFFFF" d="M72.461,79.128c-6.401,0-11.592-5.19-11.592-11.592v-52.8c0-6.404,5.19-11.594,11.592-11.594
		c6.406,0,11.592,5.189,11.592,11.594v52.8C84.053,73.938,78.867,79.128,72.461,79.128z"/>
</g>
</svg>
